<svg width="64" height="64" viewBox="0 0 64 64" fill="none" xmlns="http://www.w3.org/2000/svg">
<rect width="64" height="64" fill="#FF9200"/>
<path fill-rule="evenodd" clip-rule="evenodd" d="M15.8462 34.1431H11.9072C11.4062 34.1431 11 34.5483 11 35.0482V52.0948C11 52.5947 11.4062 53 11.9072 53H14.939C15.44 53 15.8462 52.5947 15.8462 52.0948V49.5535C15.8462 49.0536 16.2523 48.6484 16.7534 48.6484H20.2077C21.4805 48.6484 22.7409 48.3982 23.9168 47.9123C25.0927 47.4263 26.1612 46.714 27.0612 45.816C27.9612 44.9181 28.6751 43.852 29.1622 42.6788C29.6493 41.5056 29.9 40.2481 29.9 38.9782V35.9533C29.9 34.9535 29.0877 34.1431 28.0856 34.1431H25.0538H15.8462ZM15.8462 39.8833C15.8462 39.3834 16.2523 38.9782 16.7534 38.9782H20.2077H24.1466C24.6477 38.9782 25.0624 39.3869 24.9692 39.878C24.9075 40.203 24.8124 40.5215 24.685 40.8285C24.4414 41.4151 24.0844 41.9481 23.6344 42.3971C23.1844 42.8461 22.6502 43.2022 22.0622 43.4452C21.4743 43.6882 20.8441 43.8133 20.2077 43.8133H16.7534C16.2523 43.8133 15.8462 43.408 15.8462 42.9081V39.8833Z" fill="white"/>
<path fill-rule="evenodd" clip-rule="evenodd" d="M38.9463 34.1431H35.0073C34.5063 34.1431 34.1001 34.5483 34.1001 35.0482V52.0948C34.1001 52.5947 34.5063 53 35.0073 53H38.0391C38.5401 53 38.9463 52.5947 38.9463 52.0948L38.9463 49.07C38.9463 48.5701 39.3524 48.1649 39.8535 48.1649L47.2467 48.1649C47.7478 48.1649 48.1539 48.5701 48.1539 49.07V52.0948C48.1539 52.5947 48.5601 53 49.0611 53H52.0929C52.5939 53 53.0001 52.5947 53.0001 52.0948V48.1649C53.0001 46.3235 52.6366 44.5002 51.9303 42.799C51.224 41.0978 50.1888 39.552 48.8838 38.25C47.5788 36.9479 46.0295 35.9151 44.3244 35.2104C42.6193 34.5058 40.7918 34.1431 38.9463 34.1431ZM45.4571 41.6689C45.7676 41.9787 46.0548 42.3096 46.3169 42.6588C46.5299 42.9426 46.3166 43.3298 45.9612 43.3298H39.8535C39.3524 43.3298 38.9463 42.9245 38.9463 42.4246L38.9463 39.657C38.9463 39.2821 39.2513 38.9756 39.626 39.0032C40.6025 39.0754 41.5626 39.3025 42.4699 39.6775C43.587 40.1391 44.6021 40.8158 45.4571 41.6689Z" fill="white"/>
<path fill-rule="evenodd" clip-rule="evenodd" d="M34.1001 11.9051C34.1001 11.4052 34.5063 11 35.0073 11H38.9463C40.7918 11 42.6193 11.3627 44.3244 12.0673C46.0295 12.772 47.5788 13.8048 48.8838 15.1069C50.1888 16.4089 51.224 17.9547 51.9303 19.6559C52.6366 21.3571 53.0001 23.1804 53.0001 25.0218V28.9518C53.0001 29.4517 52.5939 29.8569 52.0929 29.8569H49.0611C48.5601 29.8569 48.1539 29.4518 48.1539 28.9519C48.1539 27.9066 48.1539 26.1821 48.1539 25.0218C48.1539 23.257 48.0861 22.9741 47.6136 21.5599C47.4563 21.0892 47.1181 20.5655 46.8576 20.1456C46.4847 19.5445 46.1325 19.1393 45.6291 18.637C44.7741 17.784 43.587 17.1846 42.4699 16.723C41.6319 16.3767 40.7489 16.0503 39.8495 15.9089C39.3546 15.831 38.9463 16.2403 38.9463 16.7402V20.1867V25.0218V28.9518C38.9463 29.4517 38.5401 29.8569 38.0391 29.8569H35.0073C34.5063 29.8569 34.1001 29.4517 34.1001 28.9518V11.9051Z" fill="white"/>
<path fill-rule="evenodd" clip-rule="evenodd" d="M29.9 11.9925C29.9 11.4926 29.4938 11.0874 28.9928 11.0874H11.9072C11.4062 11.0874 11 11.4926 11 11.9925V15.0174C11 15.5173 11.4062 15.9225 11.9072 15.9225H17.362C17.8631 15.9225 18.2692 16.3277 18.2692 16.8276V29.0392C18.2692 29.5391 18.6754 29.9443 19.1764 29.9443H22.2082C22.7092 29.9443 23.1154 29.5391 23.1154 29.0392V16.8276C23.1154 16.3277 23.5216 15.9225 24.0226 15.9225H28.9928C29.4938 15.9225 29.9 15.5173 29.9 15.0174V11.9925Z" fill="white"/>
</svg>
